dataset
version=1
nRows=28
nColumns=39
inDegrees=no
endheader
time	sternoclavicular_r2	sternoclavicular_r3	unrotscap_r3	unrotscap_r2	acromioclavicular_r2	acromioclavicular_r3	acromioclavicular_r1	unrothum_r1	unrothum_r3	unrothum_r2	elv_angle	shoulder_elv	shoulder1_r2	shoulder_rot	elbow_flexion	pro_sup	deviation	flexion	cmc_abduction	cmc_flexion	mp_flexion	ip_flexion	mcp2_flexion	mcp2_abduction	pm2_flexion	md2_flexion	mcp3_flexion	mcp3_abduction	pm3_flexion	md3_flexion	mcp4_flexion	mcp4_abduction	pm4_flexion	md4_flexion	mcp5_flexion	mcp5_abduction	pm5_flexion	md5_flexion
3.950000	-0.007591	-0.304500	0.165404	0.019473	0.003743	0.073418	-0.155389	-0.144515	-0.037618	0.069384	0.012240	0.027437	0.146525	0.146525	1.410628	1.291545	0.000000	0.000000	0.000000	0.000000	0.000000	0.000000	0.000000	0.000000	0.000000	0.000000	0.000000	0.000000	0.000000	0.000000	0.000000	0.000000	0.000000	0.000000	0.000000	0.000000	0.000000	0.000000
3.955000	-0.007637	-0.304153	0.165385	0.019338	0.003385	0.074423	-0.154407	-0.144496	-0.035698	0.068675	0.012174	0.027437	0.146525	0.146525	1.403105	1.291929	0.000000	0.000000	0.000000	0.000000	0.000000	0.000000	0.000000	0.000000	0.000000	0.000000	0.000000	0.000000	0.000000	0.000000	0.000000	0.000000	0.000000	0.000000	0.000000	0.000000	0.000000	0.000000
3.960000	-0.007688	-0.303801	0.165338	0.019234	0.003062	0.075414	-0.153401	-0.144442	-0.033778	0.068002	0.012149	0.027437	0.146525	0.146525	1.395464	1.292316	0.000000	0.000000	0.000000	0.000000	0.000000	0.000000	0.000000	0.000000	0.000000	0.000000	0.000000	0.000000	0.000000	0.000000	0.000000	0.000000	0.000000	0.000000	0.000000	0.000000	0.000000	0.000000
3.965000	-0.007744	-0.303444	0.165264	0.019161	0.002773	0.076390	-0.152376	-0.144353	-0.031860	0.067365	0.012161	0.027437	0.146525	0.146525	1.387716	1.292705	0.000000	0.000000	0.000000	0.000000	0.000000	0.000000	0.000000	0.000000	0.000000	0.000000	0.000000	0.000000	0.000000	0.000000	0.000000	0.000000	0.000000	0.000000	0.000000	0.000000	0.000000	0.000000
3.970000	-0.007805	-0.303083	0.165164	0.019120	0.002520	0.077351	-0.151331	-0.144231	-0.029947	0.066763	0.012211	0.027437	0.146525	0.146525	1.379870	1.293095	0.000000	0.000000	0.000000	0.000000	0.000000	0.000000	0.000000	0.000000	0.000000	0.000000	0.000000	0.000000	0.000000	0.000000	0.000000	0.000000	0.000000	0.000000	0.000000	0.000000	0.000000	0.000000
3.975000	-0.007871	-0.302719	0.165039	0.019109	0.002300	0.078295	-0.150270	-0.144075	-0.028043	0.066197	0.012298	0.027437	0.146525	0.146525	1.371937	1.293486	0.000000	0.000000	0.000000	0.000000	0.000000	0.000000	0.000000	0.000000	0.000000	0.000000	0.000000	0.000000	0.000000	0.000000	0.000000	0.000000	0.000000	0.000000	0.000000	0.000000	0.000000	0.000000
3.980000	-0.007942	-0.302352	0.164889	0.019129	0.002114	0.079223	-0.149193	-0.143886	-0.026148	0.065667	0.012421	0.027437	0.146525	0.146525	1.363926	1.293877	0.000000	0.000000	0.000000	0.000000	0.000000	0.000000	0.000000	0.000000	0.000000	0.000000	0.000000	0.000000	0.000000	0.000000	0.000000	0.000000	0.000000	0.000000	0.000000	0.000000	0.000000	0.000000
3.985000	-0.008017	-0.301983	0.164716	0.019178	0.001962	0.080133	-0.148104	-0.143665	-0.024268	0.065173	0.012579	0.027437	0.146525	0.146525	1.355848	1.294268	0.000000	0.000000	0.000000	0.000000	0.000000	0.000000	0.000000	0.000000	0.000000	0.000000	0.000000	0.000000	0.000000	0.000000	0.000000	0.000000	0.000000	0.000000	0.000000	0.000000	0.000000	0.000000
3.990000	-0.008097	-0.301612	0.164520	0.019256	0.001843	0.081025	-0.147003	-0.143412	-0.022403	0.064714	0.012769	0.027437	0.146525	0.146525	1.347713	1.294658	0.000000	0.000000	0.000000	0.000000	0.000000	0.000000	0.000000	0.000000	0.000000	0.000000	0.000000	0.000000	0.000000	0.000000	0.000000	0.000000	0.000000	0.000000	0.000000	0.000000	0.000000	0.000000
3.995000	-0.008182	-0.301241	0.164302	0.019362	0.001756	0.081899	-0.145892	-0.143129	-0.020557	0.064290	0.012993	0.027437	0.146525	0.146525	1.339530	1.295047	0.000000	0.000000	0.000000	0.000000	0.000000	0.000000	0.000000	0.000000	0.000000	0.000000	0.000000	0.000000	0.000000	0.000000	0.000000	0.000000	0.000000	0.000000	0.000000	0.000000	0.000000	0.000000
4.000000	-0.008270	-0.300868	0.164064	0.019496	0.001701	0.082753	-0.144774	-0.142816	-0.018732	0.063901	0.013247	0.027437	0.146525	0.146525	1.331308	1.295435	0.000000	0.000000	0.000000	0.000000	0.000000	0.000000	0.000000	0.000000	0.000000	0.000000	0.000000	0.000000	0.000000	0.000000	0.000000	0.000000	0.000000	0.000000	0.000000	0.000000	0.000000	0.000000
4.005000	-0.008362	-0.300496	0.163805	0.019656	0.001677	0.083587	-0.143650	-0.142474	-0.016931	0.063547	0.013531	0.027437	0.146525	0.146525	1.323059	1.295820	0.000000	0.000000	0.000000	0.000000	0.000000	0.000000	0.000000	0.000000	0.000000	0.000000	0.000000	0.000000	0.000000	0.000000	0.000000	0.000000	0.000000	0.000000	0.000000	0.000000	0.000000	0.000000
4.010000	-0.008458	-0.300125	0.163527	0.019841	0.001683	0.084401	-0.142521	-0.142105	-0.015156	0.063227	0.013844	0.027437	0.146525	0.146525	1.314790	1.296202	0.000000	0.000000	0.000000	0.000000	0.000000	0.000000	0.000000	0.000000	0.000000	0.000000	0.000000	0.000000	0.000000	0.000000	0.000000	0.000000	0.000000	0.000000	0.000000	0.000000	0.000000	0.000000
4.015000	-0.008558	-0.299754	0.163231	0.020052	0.001718	0.085194	-0.141390	-0.141707	-0.013409	0.062940	0.014184	0.027437	0.146525	0.146525	1.306512	1.296582	0.000000	0.000000	0.000000	0.000000	0.000000	0.000000	0.000000	0.000000	0.000000	0.000000	0.000000	0.000000	0.000000	0.000000	0.000000	0.000000	0.000000	0.000000	0.000000	0.000000	0.000000	0.000000
4.020000	-0.008660	-0.299384	0.162918	0.020286	0.001782	0.085965	-0.140257	-0.141284	-0.011693	0.062686	0.014549	0.027437	0.146525	0.146525	1.298234	1.296957	0.000000	0.000000	0.000000	0.000000	0.000000	0.000000	0.000000	0.000000	0.000000	0.000000	0.000000	0.000000	0.000000	0.000000	0.000000	0.000000	0.000000	0.000000	0.000000	0.000000	0.000000	0.000000
4.025000	-0.008766	-0.299015	0.162588	0.020542	0.001874	0.086715	-0.139125	-0.140835	-0.010010	0.062464	0.014939	0.027437	0.146525	0.146525	1.289964	1.297329	0.000000	0.000000	0.000000	0.000000	0.000000	0.000000	0.000000	0.000000	0.000000	0.000000	0.000000	0.000000	0.000000	0.000000	0.000000	0.000000	0.000000	0.000000	0.000000	0.000000	0.000000	0.000000
4.030000	-0.008874	-0.298649	0.162243	0.020820	0.001992	0.087442	-0.137995	-0.140362	-0.008362	0.062274	0.015352	0.027437	0.146525	0.146525	1.281710	1.297697	0.000000	0.000000	0.000000	0.000000	0.000000	0.000000	0.000000	0.000000	0.000000	0.000000	0.000000	0.000000	0.000000	0.000000	0.000000	0.000000	0.000000	0.000000	0.000000	0.000000	0.000000	0.000000
4.035000	-0.008984	-0.298284	0.161882	0.021119	0.002135	0.088146	-0.136868	-0.139866	-0.006751	0.062114	0.015785	0.027437	0.146525	0.146525	1.273483	1.298059	0.000000	0.000000	0.000000	0.000000	0.000000	0.000000	0.000000	0.000000	0.000000	0.000000	0.000000	0.000000	0.000000	0.000000	0.000000	0.000000	0.000000	0.000000	0.000000	0.000000	0.000000	0.000000
4.040000	-0.009096	-0.297922	0.161508	0.021436	0.002303	0.088827	-0.135746	-0.139347	-0.005178	0.061984	0.016239	0.027437	0.146525	0.146525	1.265289	1.298417	0.000000	0.000000	0.000000	0.000000	0.000000	0.000000	0.000000	0.000000	0.000000	0.000000	0.000000	0.000000	0.000000	0.000000	0.000000	0.000000	0.000000	0.000000	0.000000	0.000000	0.000000	0.000000
4.045000	-0.009211	-0.297562	0.161120	0.021771	0.002494	0.089485	-0.134631	-0.138806	-0.003646	0.061883	0.016710	0.027437	0.146525	0.146525	1.257138	1.298768	0.000000	0.000000	0.000000	0.000000	0.000000	0.000000	0.000000	0.000000	0.000000	0.000000	0.000000	0.000000	0.000000	0.000000	0.000000	0.000000	0.000000	0.000000	0.000000	0.000000	0.000000	0.000000
4.050000	-0.009326	-0.297204	0.160720	0.022123	0.002707	0.090118	-0.133523	-0.138246	-0.002157	0.061809	0.017199	0.027437	0.146525	0.146525	1.249036	1.299114	0.000000	0.000000	0.000000	0.000000	0.000000	0.000000	0.000000	0.000000	0.000000	0.000000	0.000000	0.000000	0.000000	0.000000	0.000000	0.000000	0.000000	0.000000	0.000000	0.000000	0.000000	0.000000
4.055000	-0.009443	-0.296849	0.160308	0.022491	0.002941	0.090727	-0.132424	-0.137666	-0.000711	0.061763	0.017702	0.027437	0.146525	0.146525	1.240991	1.299454	0.000000	0.000000	0.000000	0.000000	0.000000	0.000000	0.000000	0.000000	0.000000	0.000000	0.000000	0.000000	0.000000	0.000000	0.000000	0.000000	0.000000	0.000000	0.000000	0.000000	0.000000	0.000000
4.060000	-0.009560	-0.296497	0.159885	0.022872	0.003195	0.091311	-0.131334	-0.137067	0.000690	0.061743	0.018219	0.027437	0.146525	0.146525	1.233010	1.299787	0.000000	0.000000	0.000000	0.000000	0.000000	0.000000	0.000000	0.000000	0.000000	0.000000	0.000000	0.000000	0.000000	0.000000	0.000000	0.000000	0.000000	0.000000	0.000000	0.000000	0.000000	0.000000
4.065000	-0.009678	-0.296148	0.159451	0.023266	0.003467	0.091870	-0.130256	-0.136452	0.002045	0.061748	0.018748	0.027437	0.146525	0.146525	1.225101	1.300113	0.000000	0.000000	0.000000	0.000000	0.000000	0.000000	0.000000	0.000000	0.000000	0.000000	0.000000	0.000000	0.000000	0.000000	0.000000	0.000000	0.000000	0.000000	0.000000	0.000000	0.000000	0.000000
4.070000	-0.009797	-0.295801	0.159008	0.023672	0.003756	0.092403	-0.129190	-0.135820	0.003352	0.061776	0.019287	0.027437	0.146525	0.146525	1.217271	1.300432	0.000000	0.000000	0.000000	0.000000	0.000000	0.000000	0.000000	0.000000	0.000000	0.000000	0.000000	0.000000	0.000000	0.000000	0.000000	0.000000	0.000000	0.000000	0.000000	0.000000	0.000000	0.000000
4.075000	-0.009915	-0.295458	0.158556	0.024088	0.004061	0.092912	-0.128137	-0.135174	0.004610	0.061827	0.019835	0.027437	0.146525	0.146525	1.209524	1.300744	0.000000	0.000000	0.000000	0.000000	0.000000	0.000000	0.000000	0.000000	0.000000	0.000000	0.000000	0.000000	0.000000	0.000000	0.000000	0.000000	0.000000	0.000000	0.000000	0.000000	0.000000	0.000000
4.080000	-0.010033	-0.295117	0.158096	0.024513	0.004380	0.093394	-0.127098	-0.134513	0.005819	0.061900	0.020391	0.027437	0.146525	0.146525	1.201869	1.301048	0.000000	0.000000	0.000000	0.000000	0.000000	0.000000	0.000000	0.000000	0.000000	0.000000	0.000000	0.000000	0.000000	0.000000	0.000000	0.000000	0.000000	0.000000	0.000000	0.000000	0.000000	0.000000
4.085000	-0.010150	-0.294780	0.157628	0.024945	0.004713	0.093851	-0.126074	-0.133840	0.006977	0.061994	0.020952	0.027437	0.146525	0.146525	1.194310	1.301344	0.000000	0.000000	0.000000	0.000000	0.000000	0.000000	0.000000	0.000000	0.000000	0.000000	0.000000	0.000000	0.000000	0.000000	0.000000	0.000000	0.000000	0.000000	0.000000	0.000000	0.000000	0.000000
